<svg xmlns="http://www.w3.org/2000/svg" xmlns:xlink="http://www.w3.org/1999/xlink" width="1080" height="1080" viewBox="0 0 1080 1080">
  <defs>
    <linearGradient id="linear-gradient" x1="0.5" x2="0.5" y2="1" gradientUnits="objectBoundingBox">
      <stop offset="0" stop-color="#913236"/>
      <stop offset="1" stop-color="#761116"/>
    </linearGradient>
    <clipPath id="clip-Web_1920_6">
      <rect width="1080" height="1080"/>
    </clipPath>
  </defs>
  <g id="Web_1920_6" data-name="Web 1920 – 6" clip-path="url(#clip-Web_1920_6)">
    <g id="logo-3d" transform="translate(-392.081 -364)">
      <g id="shades" transform="translate(559 365.061)" opacity="0.2">
        <path id="Path_34" data-name="Path 34" d="M163.587,116.084a5.476,5.476,0,0,0,5.272-4.236l7.39-31.629a14.877,14.877,0,0,1,2.095-4.914c-13.73,9.691-45.726,32.655-52.273,40.779Z" transform="translate(467.306 279.076)" fill="#913236"/>
        <path id="Path_35" data-name="Path 35" d="M119.629,348.854a10.56,10.56,0,0,1,9.7,6.354l84.486,196.884a1.105,1.105,0,0,0,2.118-.188l24.24-109.479c7.154-32.194,7.719-52.574,1.694-60.623-2.353-3.154-13.885-8.425-25.275-11.579a10.815,10.815,0,0,1-7.813-12.755l.047-.141a10.769,10.769,0,0,1,10.5-8.472H321.926a10.492,10.492,0,0,1,8.237,3.907,10.784,10.784,0,0,1,2.071,8.9,10.512,10.512,0,0,1-8.425,8.1l-.471.047c-8.331,1.459-23.816,4.189-32.43,10.59-9.178,7.013-17.65,27.676-25.087,61.282L215.487,668.753l-29.634,12.4A10.494,10.494,0,0,1,176.2,674.8L77.363,444.5a1.125,1.125,0,0,0-2.118.188l-21.924,98.96L124.844,712.62c1.647,3.859,45.787,96.3,45.787,96.3,3.158,0,64.563-51.845,97.209-78.956,1.13.038,2.151.042,2.923.085,10.167.047,19.721.188,28.664.282,61.988.706,96.159,1.083,119.128-10.308a117.994,117.994,0,0,0,39.913-32.806c11.39-14.685,17.98-31.018,22.875-47.632v-.047l46.6-214.063a.257.257,0,0,0-.235-.329l-162.76-.329a14.871,14.871,0,0,1-13.932-19.91c2.212-6.072,8.425-9.743,14.873-9.743h61.033l-.485-.442h6.891a.24.24,0,0,0,.235-.188L484.666,356.9H354.873a.236.236,0,0,1-.235-.282l4.142-18.733,3.483-.235c6.731-.518,11.343-1.506,16-3.436,6.119-2.447,9.508-7.484,11.72-17.368l30.876-139.32c1.647-7.484.047-16.8-3.624-20.757-1.553-1.647-4.9-3.295-8.66-4.377a.238.238,0,0,0-.329.235c-.847,5.319-1.836,10.5-3.012,15.721v.047C380.384,280.512,288.272,330.686,208.022,330.686c0,0-102.654-23.11-97.948-25.04,7.3-3.106,11.437-8.99,13.791-19.768L177,46.3c2.259-10.167,1.035-15.673-4.142-19.011-7.06-4.617-16.85-6.406-23.581-7.3l-5.083-.706L148.477.013,97.4,37.625a.318.318,0,0,0-.282.188l-4.283,19.3,5.083.7c6.731.894,16.521,2.688,23.581,7.3,5.177,3.342,6.4,8.849,4.142,19.015L72.505,323.7c-2.353,10.778-6.5,16.662-13.791,19.768-4.707,1.93-19.627,4.283-28.1,4.8l-3.53.235-.174.791a10.669,10.669,0,0,1,2.913-.442ZM369.84,454.521a.259.259,0,0,1,.235.141l3.577,7.2Q356.85,535.289,340,608.808c-5.272,23.91-1.836,32.759.706,35.96a10.251,10.251,0,0,0,1.93,1.694c7.484,5.6,19.674,2.589,26.923-2.212,9.884-6.5,12.238-17.321,12.708-19.957a.164.164,0,0,0,.047-.094l27.723-124.823c1.742-7.907.8-15.015-2.589-18.968-1.365-1.647-6.166-3.812-12.849-4.848a10.411,10.411,0,0,1-6.778-4.283,10.076,10.076,0,0,1-1.694-6.731c.047-.329.141-.659.188-1.035l.188-.706a10.009,10.009,0,0,1,9.084-7.813l85.945-.188c.094,0,.141.047.188.141l4.33,6.966a.143.143,0,0,1,0,.188l-38.878,170.2a67.2,67.2,0,0,1-9.649,23.251c-31.676,47.585-115.363,32.288-125.482,30.312-22.122-4.33-29.323-10.119-32.147-13.6-11.108-13.838-13.132-37-6.072-68.86l22.922-103.549c1.836-8.049.424-15.579-3.671-19.627-2.118-2.071-6.119-3.954-10.4-4.989a10.315,10.315,0,0,1-7.813-12.19l.047-.188a10.1,10.1,0,0,1,9.131-7.86Z" transform="translate(99.752 -0.013)" fill="#913236"/>
        <path id="Path_36" data-name="Path 36" d="M118.846,84.977c-1.177,5.507-1.553,12.661,3.765,15.579,3.285,1.92,10.562,3.478,16.907,4.382L123.807,62.606Z" transform="translate(437.821 232.004)" fill="#913236"/>
        <path id="Path_37" data-name="Path 37" d="M130.012,124.446c16.549,0,59.9-25.572,77.2-48.917-7.536,6.975-16.53,11.094-25.845,11.094-9.79,0-17.65-3.295-22.639-9.508-3.718-4.613-7.484-12.991-4.424-26.781A64.269,64.269,0,0,1,159.952,35.7a.254.254,0,0,0-.325-.329c-10.59,3.954-19.251,13.179-22.833,17.886,0,.047,0,.094-.042.094L121.22,123.4a36.418,36.418,0,0,0,8.792,1.05" transform="translate(449.332 130.952)" fill="#913236"/>
        <path id="Path_38" data-name="Path 38" d="M84.967,287.1c58.034,0,87.122-76.344,101.294-140.355,12.609-56.763,9.221-102.513-9.23-125.482-8.566-10.684-20.187-16.1-34.595-16.1-5.883,0-14.073.329-20.71.706a.215.215,0,0,0-.235.188l-56.9,256.659c-1.836,8.19-1.177,14.356,1.977,18.262,3.248,4.048,9.461,6.119,18.4,6.119" transform="translate(235.652 19.099)" fill="#913236"/>
        <path id="Path_39" data-name="Path 39" d="M181.469,414.02C119.057,393.5,75.331,326.474,79.756,258.132c2.391-36.92,18.29-68.46,38.69-91.758-1.878.758-3.78,1.511-5.516,2.311C75.044,186.241,32.444,233.5,28.4,295.956,23.976,364.3,67.7,431.322,130.109,451.843a206.277,206.277,0,0,0,64.158,10.449c48.193,0,92.77-17.792,120.916-50.551.442-.513.9-1.045,1.36-1.572-21.425,9.366-45.66,14.3-70.921,14.3a206.254,206.254,0,0,1-64.153-10.449" transform="translate(104.132 616.646)" fill="#913236"/>
        <path id="Path_40" data-name="Path 40" d="M185.954,102.192,156.772,90.708c-.141-.094-.278,0-.329.141L145.1,140.374a14.855,14.855,0,0,0,9.832-11.037l37.847-25.967a15.526,15.526,0,0,1-6.825-1.177" transform="translate(537.846 336.03)" fill="#913236"/>
        <path id="Path_41" data-name="Path 41" d="M78.767,207.117c-12.473,20.757-8.19,61.282,17.792,86.275,16.9,16.238,46.319,27.3,67.542,15.721,15.391-8.378,22.969-26.122,24.758-38.737,1.694-11.955-.847-21.745-2.73-28.852-1.694-6.589-3.342-12.8,2.17-16.05a8.689,8.689,0,0,1,5.982-.918c-1.69-2.7-3.234-5.135-4.514-7.06,33.691-6.764,49.972-17.745,65.593-27.247a151.406,151.406,0,0,0,33.169-27.1c-22.357,11.983-54.763,23.077-127.723,22.931-38.779-.094-69.373-.141-82.039,21.039" transform="translate(267.033 604.685)" fill="#913236"/>
        <path id="Path_42" data-name="Path 42" d="M163.7,157.514H61.889a10.492,10.492,0,0,1-8.237-3.907,10.644,10.644,0,0,1-.377-12.708c-8.519,6.359-35.64,31.987-44.248,33.493a10.54,10.54,0,0,0-6.735,17.038,10.512,10.512,0,0,0,8.237,3.907H112.34c3.888,0,38.026-24.654,53.878-38.162a10.652,10.652,0,0,1-2.523.339" transform="translate(0 522.217)" fill="#913236"/>
        <path id="Path_43" data-name="Path 43" d="M47.171,371.88c9.366-6.919,17.368-26.5,25.181-61.753L108.547,146.8c3.154-14.12,2.071-24.8-3.389-33.653-4.613-7.437-13.6-13.885-25.322-18.168a10.464,10.464,0,0,1-6.542-12.1l.424-1.93a10.66,10.66,0,0,1,3-5.314,8.142,8.142,0,0,0-2.593-1.083l-41.269,35.8a10.771,10.771,0,0,0-10.491,8.425l-.424,1.925a10.465,10.465,0,0,0,6.542,12.1c11.72,4.278,20.71,10.727,25.322,18.163,5.46,8.849,6.538,19.533,3.384,33.653L20.992,347.956c-6.175,27.878-4.923,31.629-8.755,35.4a12.82,12.82,0,0,1,2.786-.89c8.613-1.506,23.628-4.236,32.147-10.59" transform="translate(45.359 276.311)" fill="#913236"/>
      </g>
      <path id="t" d="M594.721,122.886a14.867,14.867,0,0,0-7.013-1.553H563.138a5.474,5.474,0,0,1-4.236-2.024,5.363,5.363,0,0,1-1.083-4.471l5.46-22.875A14.941,14.941,0,0,0,555.7,75.536a14.579,14.579,0,0,0-7.06-1.647h-35.3a14.763,14.763,0,0,0-14.45,11.579L491.5,117.1a5.476,5.476,0,0,1-5.272,4.236H320.976c-6.448,0-12.661,3.671-14.873,9.743a14.871,14.871,0,0,0,13.932,19.91l162.76.329a.256.256,0,0,1,.235.329l-46.6,214.063v.047c-4.9,16.615-11.485,32.947-22.875,47.632a117.993,117.993,0,0,1-39.913,32.806c-22.969,11.39-57.14,11.014-119.128,10.308-8.943-.094-18.5-.235-28.664-.282-.847-.047-1.977-.047-3.248-.094-4.707-.141-11.814-.329-20.8.141-28.193,1.553-58.128,8.237-78.038,17.415-37.889,17.556-80.485,64.812-84.533,127.271-4.424,68.342,39.3,135.366,101.713,155.888A206.252,206.252,0,0,0,205.1,767.288c48.2,0,92.77-17.791,120.917-50.551,25.558-29.7,44.62-77.426,29.653-117.2-8.566-22.687-27.111-40.1-36.666-43.49-3.248-1.177-6.025-1.035-8.331.282-5.507,3.248-3.86,9.461-2.165,16.05,1.883,7.107,4.424,16.9,2.73,28.852-1.789,12.614-9.366,30.359-24.758,38.737-21.227,11.579-50.645.518-67.542-15.721-25.981-24.993-30.264-65.518-17.792-86.275,12.661-21.18,43.255-21.133,82.039-21.039,94.794.188,121.152-18.592,145.909-33.653,25.746-15.626,39.019-33.795,41.8-37.654a161.329,161.329,0,0,0,18.4-35.348,163.179,163.179,0,0,0,5.507-17.839L549.63,153.057a.216.216,0,0,1,.329-.141L579.141,164.4a15.5,15.5,0,0,0,6.825,1.177,14.951,14.951,0,0,0,13.508-11.861l2.965-14.591a14.946,14.946,0,0,0-7.719-16.238" transform="translate(703.272 638.888)" fill="url(#linear-gradient)"/>
      <path id="u" d="M182.358,103.922l-3.577-7.2a.259.259,0,0,0-.235-.141l-85.8.471a10.091,10.091,0,0,0-9.126,7.86l-.052.188a10.315,10.315,0,0,0,7.813,12.19c4.283,1.035,8.284,2.918,10.4,4.989,4.095,4.048,5.507,11.579,3.671,19.627L82.528,245.454c-7.06,31.865-5.036,55.022,6.072,68.86,2.824,3.483,10.025,9.272,32.147,13.6,10.124,1.977,93.806,17.274,125.482-30.312a67.2,67.2,0,0,0,9.649-23.251l38.878-170.2a.143.143,0,0,0,0-.188L290.425,97c-.047-.094-.094-.141-.188-.141l-85.945.188a10.009,10.009,0,0,0-9.084,7.813l-.188.706c-.047.377-.141.706-.188,1.035a10.077,10.077,0,0,0,1.694,6.731,10.411,10.411,0,0,0,6.778,4.283c6.684,1.035,11.484,3.2,12.849,4.848,3.389,3.954,4.33,11.061,2.589,18.968L191.019,266.258a.164.164,0,0,1-.047.094c-.471,2.636-2.824,13.461-12.708,19.957-7.248,4.8-19.439,7.813-26.923,2.212a10.242,10.242,0,0,1-1.93-1.694c-2.542-3.2-5.978-12.049-.706-35.96q16.874-73.5,33.653-146.945" transform="translate(849.656 722.995)" fill="url(#linear-gradient)"/>
      <path id="n" d="M245.075,406.425h18.4a10.615,10.615,0,0,0,10.308-8.237l51.257-231.243c7.437-33.606,15.909-54.269,25.087-61.282,8.613-6.4,24.1-9.131,32.43-10.59l.471-.047a10.512,10.512,0,0,0,8.425-8.1,10.784,10.784,0,0,0-2.071-8.9,10.492,10.492,0,0,0-8.237-3.907H278.54a10.769,10.769,0,0,0-10.5,8.472l-.047.141A10.815,10.815,0,0,0,275.81,95.5c11.39,3.154,22.922,8.425,25.275,11.579,6.025,8.049,5.46,28.429-1.694,60.623l-24.24,109.479a1.105,1.105,0,0,1-2.118.188L188.547,80.482a10.56,10.56,0,0,0-9.7-6.354h-89.8a10.776,10.776,0,0,0-10.5,8.425l-.424,1.93a10.464,10.464,0,0,0,6.542,12.1c11.72,4.283,20.71,10.731,25.322,18.168,5.46,8.849,6.542,19.533,3.389,33.653L77.185,311.725C69.372,346.979,61.37,366.559,52,373.478c-8.519,6.354-23.534,9.084-32.147,10.59a10.54,10.54,0,0,0-6.731,17.038,10.492,10.492,0,0,0,8.237,3.907H123.17a10.822,10.822,0,0,0,10.543-8.472v-.188a10.713,10.713,0,0,0-7.578-12.661c-9.837-2.777-22.216-8-25.087-11.626-5.978-7.954-5.319-27.252,2.071-60.623l31.347-141.485a1.125,1.125,0,0,1,2.118-.188l98.842,230.3a10.494,10.494,0,0,0,9.649,6.354" transform="translate(599.14 639.774)" fill="url(#linear-gradient)"/>
      <path id="dr" d="M166.141,330.894c80.245,0,172.352-50.188,197.218-162.308v0c.654-2.946,1.252-5.883,1.8-8.835a5.783,5.783,0,0,1,8.976-3.8,8.131,8.131,0,0,1,1.214,1.05c3.652,3.949,5.276,13.25,3.615,20.729l-30.886,139.32c-2.2,9.9-5.573,14.935-11.7,17.387-4.669,1.934-9.3,2.928-15.989,3.417a8.7,8.7,0,0,0-3.347,1.793c-4.133,3.624-4.58,17.057-.918,17.057l122.267.433a5.716,5.716,0,0,0,5.582-4.481,41.238,41.238,0,0,0,1.52-7.027c.466-3.69.094-4.791-.4-5.559a5.674,5.674,0,0,0-3.314-2.217c-6.9-.56-18.554-2.485-22.974-5.079-5.319-2.923-4.975-10.077-3.761-15.565l29.149-131.455a5.533,5.533,0,0,1,1.054-2.273,62.837,62.837,0,0,1,7.347-7.686c4.165-3.695,10.642.273,9.4,5.7-3.05,13.781.715,22.174,4.42,26.786,5,6.232,12.845,9.526,22.672,9.526,19.839,0,38.351-18.573,44.027-44.163,3.441-15.518,1.4-28.975-5.742-37.875-5.615-6.994-13.833-10.689-23.769-10.689-16.46,0-32.815,8.185-50.678,25.525l2.118-7.644a5.789,5.789,0,0,0-.654-4.584l-1.483-2.4a5.765,5.765,0,0,0-4.867-2.735l-73.374-.546a5.792,5.792,0,0,1-5.7-6.072c1.36-36.6-8.1-66.271-28.193-88.313C309.24,3.732,263.246,0,244.936,0H111.288a5.78,5.78,0,0,0-5.639,4.528c-3.417,7.667-4.081,13.814-1.68,15.476.541.372,19.943,2.862,27.012,7.474,5.182,3.375,6.378,8.891,4.128,19.039L81.989,286.1c-1.7,7.667-4.288,12.864-8.265,16.332a23.371,23.371,0,0,1-5.54,3.408c-10.661,5.017-17.712-.555-23.157,4.279-1.04.922-2.142,3.154-4.354,7.611-2.382,4.81-2.753,6.9-2.6,8.844a11.554,11.554,0,0,0,1.224,4.321Zm-7.54-48.875,56-252.536a5.767,5.767,0,0,1,5.347-4.523c5.672-.273,11.809-.485,16.511-.485,14.389,0,26.028,5.417,34.6,16.092,18.455,23,21.825,68.752,9.235,125.506C266.1,230.1,237,306.419,178.971,306.419c-8.948,0-15.137-2.057-18.389-6.109-3.139-3.911-3.808-10.068-1.982-18.29" transform="translate(700.008 365)" fill="url(#linear-gradient)"/>
      <g id="light" transform="translate(763.457 391.739)" opacity="0.4">
        <path id="Path_48" data-name="Path 48" d="M148.078,89.588a4.706,4.706,0,0,1-4.128-6.961c11.508-21.147,10.5-31.676,7.62-36.788-3.723-6.613-12.383-7.1-12.468-7.1a4.707,4.707,0,0,1,.188-9.409c.061,0,.113,0,.169,0,.565.019,13.88.612,20.253,11.776,5.959,10.444,3.441,25.93-7.5,46.027a4.7,4.7,0,0,1-4.137,2.452" transform="translate(294.484 81.969)" fill="#fcf3e4"/>
        <path id="Path_49" data-name="Path 49" d="M117.031,181.9a5.126,5.126,0,0,1-1.059-.113,4.717,4.717,0,0,1-3.535-5.648l30.354-132.5a4.706,4.706,0,1,1,9.173,2.1l-30.349,132.5a4.709,4.709,0,0,1-4.584,3.652" transform="translate(211.877 121.44)" fill="#fcf3e4"/>
        <path id="Path_50" data-name="Path 50" d="M116.531,243.091a4.835,4.835,0,0,1-1.059-.118,4.71,4.71,0,0,1-3.535-5.643l30.354-132.49a4.706,4.706,0,0,1,9.173,2.1l-30.349,132.5a4.709,4.709,0,0,1-4.584,3.652" transform="translate(210.024 348.308)" fill="#fcf3e4"/>
        <path id="Path_51" data-name="Path 51" d="M66.289,211.15a4.72,4.72,0,0,1-4.613-5.648L77.411,128.49a4.706,4.706,0,0,1,9.221,1.887L70.9,207.384a4.71,4.71,0,0,1-4.608,3.765" transform="translate(23.798 435.6)" fill="#fcf3e4"/>
        <path id="Path_52" data-name="Path 52" d="M107.959,437.382a4.7,4.7,0,0,1-.885-9.324c34.938-6.749,51.12-10.19,68.4-21.035,35.536-22.305,51.581-61.352,58.787-90.181L284.481,94.552a4.708,4.708,0,1,1,9.183,2.08L243.419,319.021c-7.649,30.6-24.753,72-62.943,95.971-19.5,12.247-38.012,15.819-71.623,22.3a4.469,4.469,0,0,1-.894.09" transform="translate(178.296 310.144)" fill="#fcf3e4"/>
        <path id="Path_53" data-name="Path 53" d="M148.784,109.282a4.823,4.823,0,0,1-1.12-.132,4.712,4.712,0,0,1-3.459-5.691l5.756-23.538a4.707,4.707,0,1,1,9.145,2.231l-5.752,23.538a4.716,4.716,0,0,1-4.57,3.591" transform="translate(329.572 256.178)" fill="#fcf3e4"/>
        <path id="Path_54" data-name="Path 54" d="M191.758,324.242c-46.347,0-82.749-23.218-84.915-24.626-42.841-27.883-58.5-70.973-63.235-88.2a4.706,4.706,0,0,1,9.075-2.5c4.457,16.2,19.156,56.683,59.3,82.811,2.909,1.887,72.079,46,139.579,7.248,56.909-32.684,64.045-97.237,64.676-104.49a4.641,4.641,0,0,1,5.093-4.288,4.7,4.7,0,0,1,4.283,5.1c-.668,7.752-8.307,76.781-69.363,111.842a127.743,127.743,0,0,1-64.492,17.1" transform="translate(-43.439 678.197)" fill="#fcf3e4"/>
        <path id="Path_55" data-name="Path 55" d="M93.771,258.961a4.707,4.707,0,0,1-3.455-7.9l3.869-4.151c17.928-19.18,47.943-51.3,57.983-96.917,5.992-27.214,15.043-68.328-7.973-103.619-8.449-12.953-20.2-23.675-34.929-31.869a4.707,4.707,0,1,1,4.575-8.227c16.083,8.948,28.946,20.705,38.242,34.957,25.162,38.6,15.6,82.034,9.277,110.783-10.59,48.141-41.707,81.432-60.3,101.322l-3.836,4.118a4.7,4.7,0,0,1-3.455,1.506" transform="translate(125.686 -5.681)" fill="#fcf3e4"/>
      </g>
    </g>
  </g>
</svg>
