<?xml version="1.0" encoding="utf-8"?>
<!-- Generator: Adobe Illustrator 27.4.1, SVG Export Plug-In . SVG Version: 6.00 Build 0)  -->
<svg version="1.1" id="Camada_1" xmlns="http://www.w3.org/2000/svg" xmlns:xlink="http://www.w3.org/1999/xlink" x="0px" y="0px"
	 viewBox="0 0 1914.4 524.8" style="enable-background:new 0 0 1914.4 524.8;" xml:space="preserve">
<style type="text/css">
	.st0{fill:#761116;}
</style>
<g>
	<path class="st0" d="M532.8,105.6l-19.2-5.4V78.7l57.2-6.9h0.6l8.9,6v135.3l17.2,2.6v18.9h-82.4v-18.9l17.7-2.6L532.8,105.6
		L532.8,105.6z M532.2,44.4c-4.6-4.4-6.9-10-6.9-16.9c0-8,2.5-14.6,7.6-19.7C538,2.6,544.8,0,553.4,0c8.6,0,15.2,2.2,19.7,6.6
		c4.6,4.4,6.9,10,6.9,16.9c0,8.2-2.6,14.8-7.7,19.9c-5.1,5.1-12.4,7.6-21.7,7.6h-0.3C542.8,50.9,536.8,48.8,532.2,44.4L532.2,44.4z"
		/>
	<path class="st0" d="M633.2,105.6l-16.9-5.1V78.1l52.1-6.3h0.9l7.4,6v10.6l-0.3,6.6c6.7-6.3,15.2-11.6,25.5-16
		c10.3-4.4,21.1-6.6,32.3-6.6c11.3,0,20.5,2,27,6.1c6.6,4.1,11.3,10.6,14.3,19.6c3,9,4.4,21.2,4.4,36.6v78.4l16,2.3v19.2h-77.8
		v-18.9l14-2.6V135c0-9.2-0.6-16.3-1.9-21.3c-1.2-5.1-3.4-8.7-6.4-11c-3.1-2.3-7.4-3.4-13.2-3.4c-8.8,0-18.7,4.1-29.7,12.3v101.6
		l15.7,2.6v18.9h-79.3v-18.9l15.7-2.6L633.2,105.6L633.2,105.6z"/>
	<path class="st0" d="M827.8,28l-19.5-3.7V6.9L865.3,0h0.9l8.3,6v133.6l-0.9,14L927.4,97l-21.2-3.1v-18H984v18l-23.5,3.7L929.6,127
		l47.2,86.1l14.9,2.6v18.9h-79.5v-18.9l12.9-2.6l-28.3-56.7l-23.2,24l0.6,14.6v18l16.6,2.6v18.9H812v-18.9l15.7-2.6L827.8,28
		L827.8,28z"/>
	<path class="st0" d="M1012.8,230c-4.9-4.6-7.3-10.2-7.3-16.9c0-7.6,2.8-13.9,8.3-18.7c5.5-4.9,12.4-7.3,20.6-7.3
		c7.4,0,13.5,2.4,18,7.2c4.6,4.8,6.9,10.4,6.9,16.9c0,8-2.7,14.3-8,18.9s-12.5,6.9-21.5,6.9C1023.3,236.9,1017.6,234.6,1012.8,230
		L1012.8,230z"/>
	<path class="st0" d="M529,512.4c-11.7-8.2-17.6-19.2-17.6-32.9c0-7.6,2.6-14.9,7.7-21.7c5.1-6.9,11.6-12,19.5-15.4
		c-9-5.1-13.5-13.4-13.5-24.6c0-6.1,2.1-12.1,6.3-17.9c4.2-5.8,9.8-10.3,16.9-13.3c-21.2-7.8-31.8-24-31.8-48.6
		c0-10.9,3.2-20.4,9.7-28.5c6.5-8.1,15.3-14.3,26.3-18.6c11.1-4.3,23.3-6.4,36.6-6.4c23.8,0,41.3,4.4,52.4,13.2
		c2.7-3.2,6.9-6.3,12.6-9.3c5.7-3,11.6-4.4,17.7-4.4h10.3v34.9h-28.3c1.9,5.3,2.9,10.8,2.9,16.3c0,17.5-6.2,31.5-18.6,41.8
		c-12.4,10.3-30,15.4-52.9,15.4c-9.4,0-17.1-0.7-23.2-2c-1.2,2.3-2,4.7-2.7,7.2c-0.7,2.5-1,4.5-1,6c0,5.9,2.2,10,6.6,12.2
		c4.4,2.2,12.4,3.3,24,3.3h29.5c40.2,0,60.4,14.4,60.4,43.2c0,12.6-4.4,23.7-13.2,33.2s-20.3,16.8-34.5,21.9
		c-14.2,5-29.2,7.6-45.1,7.6C559.7,524.8,540.7,520.7,529,512.4L529,512.4z M618.4,495c7.4-5.5,11.2-13.4,11.2-23.5c0-8-2-13.7-6-17
		c-4-3.3-11.1-5-21.2-5h-29.2c-3,0-6.5-0.2-10.3-0.6c-3.6,5.9-5.4,13.3-5.4,22c0,21.6,11.4,32.3,34,32.3
		C602,503.3,610.9,500.5,618.4,495L618.4,495z M605.3,363.8c3.5-6,5.3-14.6,5.3-25.9c0-12.2-1.8-21.1-5.4-26.6
		c-3.6-5.5-9.4-8.3-17.5-8.3c-16.2,0-24.3,11.3-24.3,33.8c0,24,8.2,36,24.6,36C596,372.8,601.8,369.8,605.3,363.8L605.3,363.8z"/>
	<path class="st0" d="M717.5,363.1c17.1-9,39.5-13.5,67.4-13.7v-5.7c0-6.9-0.8-12.3-2.3-16.3c-1.5-4-4.3-7-8.3-9c-4-2-9.9-3-17.7-3
		c-9.4,0-17.7,1.1-25,3.3c-7.3,2.2-15,5.1-23,8.7l-9.7-20.6c3-2.5,8-5.5,14.9-9c6.9-3.5,15.1-6.6,24.7-9.2
		c9.6-2.6,19.7-3.9,30.2-3.9c15.3,0,27.2,2,35.9,6c8.7,4,14.9,10.2,18.6,18.6c3.7,8.4,5.6,19.8,5.6,34.3v85h14.9v18
		c-4.4,0.9-10.5,1.9-18.3,2.9c-7.8,1-14.5,1.4-20,1.4c-7.3,0-12.1-1-14.5-3.1c-2.4-2.1-3.6-6.3-3.6-12.6v-6.6
		c-4.8,5.7-11.2,10.8-19.2,15.3c-8,4.5-17.3,6.7-27.8,6.7c-9,0-17.1-2-24.5-5.9c-7.3-3.9-13.2-9.5-17.5-16.9
		c-4.3-7.3-6.4-16.1-6.4-26.2C691.9,384.9,700.4,372.1,717.5,363.1L717.5,363.1z M774,421.3c4.2-2,7.8-4.4,10.9-7.3v-45.5
		c-14.9,0-25.9,2.7-33,8c-7.2,5.3-10.7,12.2-10.7,20.6c0,8.4,1.9,15.3,5.7,20c3.8,4.8,9.1,7.2,15.7,7.2
		C766,424.3,769.8,423.3,774,421.3L774,421.3z"/>
	<path class="st0" d="M859.8,428.6L875,426V318.5l-16.9-5.1V291l52.1-6.3l2.3,1.1l5.7,8v14.3c6.1-6.3,15.1-11.7,26.9-16.2
		c11.8-4.5,21.9-6.7,30.3-6.7c10.3,0,18.6,1.7,25,5.1c6.4,3.4,11.2,8.8,14.5,16c6.5-6.1,14.6-11.2,24.5-15.2c9.8-4,19.8-6,29.9-6
		c16.8,0,28.8,4.9,36.2,14.6s11,25.7,11,47.8V426l17.2,2.6v18.9h-77.5v-18.9l12.9-2.6v-77.2c0-13.7-1.6-23.3-4.7-28.6s-8.9-8-17.3-8
		c-8.4,0-17.9,3.7-27.5,11.2c1.2,7.1,1.7,15.2,1.7,24.3V426l16,2.6v18.9h-78.1v-18.9l14.3-2.6v-78.1c0-13.5-1.5-22.9-4.4-28
		c-3-5.1-8.5-7.7-16.7-7.7c-5.3,0-10.6,1.2-15.9,3.6c-5.2,2.4-9.8,5.3-13.6,8.7V426l15.4,2.6v18.9h-78.4L859.8,428.6L859.8,428.6z"
		/>
	<path class="st0" d="M1140.2,219.7l56.4-6.9h0.6l9.2,5.7v83.5c5-5.1,11.1-9.4,18.3-12.7c7.2-3.3,15-5,23.2-5
		c18.3,0,33.1,6.4,44.5,19.3c11.3,12.9,17,32.6,17,59.1c0,16.6-3.5,31.6-10.4,44.9c-7,13.4-16.9,23.8-29.9,31.5
		c-13,7.6-28.1,11.4-45.5,11.4c-16.4,0-30.1-1.3-41.2-3.9s-18.3-4.9-21.7-7V240.1l-20.3-3.7L1140.2,219.7L1140.2,219.7z
		 M1216.6,315.6c-4.2,2.1-7.6,4.6-10.3,7.4v103.6c0.8,1.9,2.9,3.4,6.4,4.6c3.5,1.2,7.6,1.7,12.2,1.7c10.7,0,19.2-5.6,25.5-16.9
		c6.3-11.3,9.4-27.9,9.4-49.8c0-18.5-2.7-32.1-8-40.8c-5.3-8.7-12.6-13-21.7-13C1225.3,312.4,1220.8,313.5,1216.6,315.6
		L1216.6,315.6z"/>
	<path class="st0" d="M1342.5,322.3c7.2-12.7,17-22.2,29.3-28.5c12.3-6.3,25.8-9.4,40.5-9.4c24,0,42.9,7.2,56.5,21.6
		c13.6,14.4,20.5,34.5,20.5,60.2c0,18.9-3.6,34.6-10.9,47.2c-7.3,12.6-17,21.9-29.2,28c-12.2,6.1-25.9,9.2-40.9,9.2
		c-23.8,0-42.6-7.2-56.2-21.6c-13.6-14.4-20.5-34.5-20.5-60.2C1331.6,350.5,1335.3,335,1342.5,322.3L1342.5,322.3z M1431.6,415.9
		c4.5-9.8,6.7-25.2,6.7-46.2c0-22.3-2.1-38.8-6.4-49.4c-4.3-10.6-11.5-15.9-21.6-15.9c-18.7,0-28,20.3-28,60.9
		c0,22.1,2.3,38.5,6.9,49.2c4.6,10.7,11.9,16,22,16C1420.3,430.6,1427.1,425.7,1431.6,415.9L1431.6,415.9z"/>
	<path class="st0" d="M1514.8,428.6l17.5-2.6V318.5l-16.9-5.1V291l47.5-6.3h0.9l8,6v6.9l-0.9,23.8h0.9c1.3-4.4,4.4-9.5,9.2-15.3
		c4.8-5.8,10.8-10.9,18.2-15.2c7.3-4.3,15.3-6.4,23.9-6.4c5,0,8.8,0.7,11.4,2v49.8c-3.1-2.3-6.3-4.1-9.9-5.4c-3.5-1.3-8.1-2-13.6-2
		c-6.9,0-13.1,0.9-18.6,2.7c-5.5,1.8-9.9,3.9-13.2,6.2v88.4l31.5,2.9v18.6h-95.8L1514.8,428.6L1514.8,428.6z"/>
	<path class="st0" d="M1665.4,512.4c-11.7-8.2-17.6-19.2-17.6-32.9c0-7.6,2.6-14.9,7.7-21.7c5.1-6.9,11.6-12,19.5-15.4
		c-9-5.1-13.5-13.4-13.5-24.6c0-6.1,2.1-12.1,6.3-17.9s9.8-10.3,16.9-13.3c-21.2-7.8-31.8-24-31.8-48.6c0-10.9,3.2-20.4,9.7-28.5
		c6.5-8.1,15.3-14.3,26.3-18.6c11.1-4.3,23.3-6.4,36.6-6.4c23.8,0,41.3,4.4,52.4,13.2c2.7-3.2,6.9-6.3,12.6-9.3
		c5.7-3,11.6-4.4,17.7-4.4h10.3v34.9h-28.3c1.9,5.3,2.9,10.8,2.9,16.3c0,17.5-6.2,31.5-18.6,41.8c-12.4,10.3-30,15.4-52.9,15.4
		c-9.4,0-17.1-0.7-23.2-2c-1.2,2.3-2,4.7-2.7,7.2c-0.7,2.5-1,4.5-1,6c0,5.9,2.2,10,6.6,12.2c4.4,2.2,12.4,3.3,24,3.3h29.5
		c40.2,0,60.4,14.4,60.4,43.2c0,12.6-4.4,23.7-13.2,33.2c-8.8,9.5-20.3,16.8-34.5,21.9c-14.2,5-29.2,7.6-45.1,7.6
		C1696.1,524.8,1677.1,520.7,1665.4,512.4L1665.4,512.4z M1754.8,495c7.4-5.5,11.2-13.4,11.2-23.5c0-8-2-13.7-6-17
		c-4-3.3-11.1-5-21.2-5h-29.2c-3,0-6.5-0.2-10.3-0.6c-3.6,5.9-5.4,13.3-5.4,22c0,21.6,11.4,32.3,34,32.3
		C1738.4,503.3,1747.4,500.5,1754.8,495L1754.8,495z M1741.8,363.8c3.5-6,5.3-14.6,5.3-25.9c0-12.2-1.8-21.1-5.4-26.6
		c-3.6-5.5-9.4-8.3-17.5-8.3c-16.2,0-24.3,11.3-24.3,33.8c0,24,8.2,36,24.6,36C1732.5,372.8,1738.2,369.8,1741.8,363.8L1741.8,363.8
		z"/>
	<path class="st0" d="M1849.8,318.5l-19.2-5.4v-21.5l57.2-6.9h0.6l8.9,6V426l17.2,2.6v18.9H1832v-18.9l17.7-2.6L1849.8,318.5
		L1849.8,318.5z M1849.2,257.2c-4.6-4.4-6.9-10-6.9-16.9c0-8,2.5-14.6,7.6-19.7c5.1-5.1,11.9-7.7,20.5-7.7s15.2,2.2,19.7,6.6
		c4.6,4.4,6.9,10,6.9,16.9c0,8.2-2.6,14.8-7.7,19.9c-5.1,5.1-12.4,7.6-21.7,7.6h-0.3C1859.8,263.8,1853.8,261.6,1849.2,257.2
		L1849.2,257.2z"/>
</g>
<path class="st0" d="M306.9,59.2c-49.2,20.8-95.3,35.7-136.1,46.6C73.6,123.6,0,208.7,0,311.1c0,115.3,93.5,208.7,208.7,208.7
	s208.7-93.5,208.7-208.7l0,0V4.4C385.4,22.7,348.5,41.6,306.9,59.2L306.9,59.2z M190.1,472.7c-26.6-1.5-51.7-9.4-73.8-24.4
	c-31.8-21.6-54.9-50.1-64.9-88c-9.8-37.2-7.2-73.6,8.4-109.2c-1,57.7,15.4,109,56.6,150.1c41.2,41.1,91.9,59.2,150.4,56.7
	C249,467.4,230,474.9,190.1,472.7L190.1,472.7z"/>
</svg>
